<?xml version="1.0" encoding="UTF-8"?>
<svg width="109px" height="142px" viewBox="0 0 109 142" version="1.1" xmlns="http://www.w3.org/2000/svg" xmlns:xlink="http://www.w3.org/1999/xlink">
    <title>Group 2</title>
    <defs>
        <path d="M6.75125293,0 L94.5424112,0 L102.604567,116.265907 C68.8031698,129.48277 51.9024713,136.091201 51.9024713,136.091201 L-7.10542736e-15,116.265907 L6.75125293,0 Z" id="path-1"></path>
    </defs>
    <g id="Page-1" stroke="none" stroke-width="1" fill="none" fill-rule="evenodd">
        <g id="Group-2" transform="translate(3.000000, 3.000000)">
            <g id="Group" transform="translate(27.567844, 12.671946)" fill="#FFFFFF">
                <polygon id="Path" stroke="#39508A" points="7.50853828 18.9456116 7.50853828 -1.42108547e-14 37.4722007 -1.42108547e-14 49.6073214 18.9456116"></polygon>
                <polygon id="Path-2" stroke="#395089" points="7.50853828 18.9456116 0 24.9485736 0 6.03798247 7.50853828 1.42108547e-14"></polygon>
                <polygon id="Path-3" stroke="#375189" points="7.10542736e-15 24.9485736 43.9430607 24.9485736 49.6073214 18.9456116 7.50853828 18.9456116"></polygon>
            </g>
            <path d="M45.5678441,36.677897 C48.3104941,35.3405962 50.5056041,34.6719457 52.1531741,34.6719457 C53.8007442,34.6719457 56.1084771,35.3405962 59.0763729,36.677897 L59.0763729,63.1109482 L59.0763729,124.339044 L45.5678441,124.339044 L45.5678441,36.677897 Z" id="Path-4" stroke="#395089" fill="#FFFFFF"></path>
            <g id="Group-3" transform="translate(28.567844, 61.671946)" fill="#FFFFFF" stroke="#395089">
                <path d="M14.2589735,4.12432899 C6.78026029,4.14615922 4.9853508,5.37469052 3.14326711,11.8777781 C6.54942733,11.3910103 9.81635496,10.9242149 13.3347256,10.4211905 C13.6841811,8.04076599 13.9699743,6.09462379 14.2589735,4.12432899 Z M49.6286291,52.9070075 C49.2732196,51.9339364 47.4206019,50.5428395 46.9928281,50.7690379 C45.8725554,51.3612411 44.4500015,52.7184314 44.4147353,53.8122655 C44.3153489,56.9051917 44.8507531,60.0190192 45.1516604,63.2944834 C51.8256642,63.1918348 52.4228987,60.5615238 49.6286291,52.9070075 Z M37.7210374,66.7 C39.557167,65.8068183 40.6220215,65.5248831 40.6183669,65.2564177 C40.5528632,60.0687179 40.7085838,54.8289971 39.9363926,49.7379077 C39.7586879,48.5651131 36.2613853,47.1633334 34.3822035,47.2864187 C33.2655948,47.3598055 32.3257749,50.205632 31.3062626,51.8048128 C31.7120523,52.077923 32.1183,52.3505687 32.5240897,52.6232144 C34.2548789,51.9190732 35.9856681,51.2144676 37.7210374,50.508004 L37.7210374,66.7 Z M17.9228056,16.8942288 C16.9568796,15.2002955 16.0204488,12.9688253 15.5482489,13.0598621 C11.1999787,13.9033452 6.65659977,14.5303838 2.73656142,16.4268274 C1.199049,17.1704488 1.09737258,20.9716965 0,24.4691788 C4.17728276,22.7447451 10.1515513,20.2197617 17.9228056,16.8942288 Z M11.9227057,41.5343841 C12.8162125,38.0837493 17.8854326,40.7977298 20.12094,40.5529525 C18.7446442,38.5979853 17.5332292,36.8775771 15.5619889,34.0768044 C12.4503239,35.0958583 8.36723691,36.2301016 4.44445054,37.7823706 C1.22836113,39.0554913 1.06348044,42.1999741 2.35733584,44.6203433 C5.2258018,49.9877942 9.72750259,53.7834682 15.0600188,56.7054683 C17.0294271,51.2562701 11.7679011,49.0203915 11.7679011,43.3806646 C14.1619967,44.167977 11.123628,44.6203433 11.9227057,41.5343841 Z M15.6453453,9.39377606 C18.0929075,12.4142445 21.0122297,13.9688359 23.1616146,13.9688359 C25.5304005,13.3924248 27.9426966,12.9525688 30.2537742,12.1945487 C31.9300612,11.6441481 33.4721537,10.672006 33.7396268,10.5410246 C36.4981723,14.8833834 38.6526133,18.2749658 40.982469,21.9419807 C39.7696799,22.998657 37.8552319,23.9308545 37.1205969,25.4506104 C35.1979049,29.4274289 33.1030041,33.566813 32.5359978,37.8408942 C32.3266909,39.4173158 36.0433764,41.786593 38.2738457,43.3481515 C39.7444898,44.3774239 42.3541847,45.6482222 43.4227032,45.0160743 C47.7535692,42.4535764 52.0235211,39.3276725 52,33.4265421 C51.9800109,28.519384 51.5760532,23.6099036 51.2426278,18.7083192 C50.9005004,13.6803981 48.3677498,10.499222 43.7332285,8.36589714 C40.986133,7.10113695 38.8051279,4.48243773 36.5068743,2.32170897 C33.07415,-0.904985504 29.637258,1.25537626 26.83937,2.77364128 C24.041482,4.29190629 22.7983651,5.02483125 22.7344392,5.02483125 C21.8196824,5.44503331 19.2049361,7.51126668 15.6453453,9.39377606 Z M18.5912136,28.9271914 C15.5569509,22.9693952 13.7066232,22.5434734 6.45324693,25.4213486 C0.304571271,27.8612257 -0.788679291,29.7451285 0.631584635,35.1938621 C5.9430328,34.0600834 11.269137,33.0326689 16.5182969,31.6931286 C17.0947687,31.5460454 17.7857409,30.6240664 18.5912136,28.9271914 Z" id="Fill-1"></path>
            </g>
            <path d="M46.4906497,123.662999 L47.1590577,127.159175 C49.2444791,127.529382 50.7369992,127.714486 51.6366181,127.714486 C52.5362369,127.714486 54.2059925,127.529382 56.645885,127.159175 L58.6097722,123.662999 L46.4906497,123.662999 Z" id="Path-5" stroke="#375189" fill="#FFFFFF"></path>
            <polygon id="Path-6" stroke="#375188" fill="#FFFFFF" points="47.1590577 127.159175 47.1590577 134.478886 51.9024713 136.091201 56.645885 134.478886 56.645885 127.159175"></polygon>
            <g id="Path-7">
                <use stroke="#FFFFFF" stroke-width="5" xlink:href="#path-1"></use>
                <path stroke="#3A548B" stroke-width="3" d="M8.16667865,1.5 L93.1428228,1.5 L101.031923,115.270242 L51.896145,134.483082 L1.56113939,115.256516 L8.16667865,1.5 Z" stroke-linejoin="square"></path>
            </g>
            <polygon id="Star" fill="#FFFFFF" points="81.5 16.25 77.0916106 18.5676275 77.9335381 13.6588137 74.3670761 10.1823725 79.2958053 9.46618627 81.5 5 83.7041947 9.46618627 88.6329239 10.1823725 85.0664619 13.6588137 85.9083894 18.5676275"></polygon>
        </g>
    </g>
</svg>