<svg width="301" height="394" viewBox="0 0 301 394" fill="none" xmlns="http://www.w3.org/2000/svg">
<path fill-rule="evenodd" clip-rule="evenodd" d="M15 165H138V171H15V165ZM140 165H158V171H140V165ZM284 165H161V171H284V165Z" fill="white"/>
<path d="M274.696 3L296.909 331.573L149.752 390.27L3.11399 331.615L3.34318 327.452L3.34545 327.415L25.2542 3H274.696Z" stroke="white" stroke-width="6"/>
<path fill-rule="evenodd" clip-rule="evenodd" d="M219.85 91.7L99.85 91.75V39.1H186.75L219.85 91.7Z" fill="white"/>
<path fill-rule="evenodd" clip-rule="evenodd" d="M78.25 109.3V54.35L98.25 39.9V92.25L78.25 109.3Z" fill="white"/>
<path fill-rule="evenodd" clip-rule="evenodd" d="M203.45 110.25H169.65V107.6H200.3C204.05 104.35 207.65 100.7 211.35 97.3L210.85 96H101.7C97.5 99.25 93.4 102.75 89.3 106.2L89.8 107.5L127.65 107.55V110.2H79.65L99.3 93.3H219.8L203.45 110.2V110.25Z" fill="white"/>
<path fill-rule="evenodd" clip-rule="evenodd" d="M199.75 106H169.7C169.45 104.95 170.05 103.45 169.15 102.6L159.65 98.9L138.85 98.95L128.15 102.6C127.4 103.45 127.9 104.85 127.75 105.95L92.05 106L102.25 97.45H208.8L199.75 106Z" fill="white"/>
<path fill-rule="evenodd" clip-rule="evenodd" d="M158.9 185.6C153.85 187.85 148.75 189.95 143.7 192.15L139.95 190.95L140 100.55H158.85L158.9 185.6Z" fill="white"/>
<path fill-rule="evenodd" clip-rule="evenodd" d="M138.35 190.4L129.3 187.6L129.25 111.9C129.3 110.3 129.15 108.4 129.35 106.75C129.1 105.85 129.25 104.9 129.25 103.95L138.2 100.85L138.3 101.25V190.4H138.35Z" fill="white"/>
<path fill-rule="evenodd" clip-rule="evenodd" d="M168.05 181C165.55 182.3 163.05 183.75 160.45 184.85L160.5 100.9L168.05 103.85V181Z" fill="white"/>
<path fill-rule="evenodd" clip-rule="evenodd" d="M173.8 181.5C195.05 187.25 214.8 196.65 233.3 209.15C236.25 211.4 237.6 214.55 238.25 217.95C240.4 226.05 242.1 234.35 243.55 242.8L247.45 269C247.7 271.65 247.4 274.3 246.7 276.6L236.85 302.4L232.65 312.75L236.3 329.25L239.75 347.65L240 349.55L237.25 350.7L229.6 311.9L244.3 272.7L239.5 246.75C237.1 235 234.35 223.35 230.4 212.2L214.7 204.25L189.15 190.9L185.15 188.95L184.65 192L202.4 201.7L221.95 212.55L224.25 213.85C231 233.15 231.85 254.95 232.55 276.8C232.15 283.05 228.2 287.85 224.65 292.85C217.9 301.25 209.2 307.25 200.45 312.05L170.6 290.9C170.55 290.85 170.55 290.85 170.5 290.85L183.15 310.15L207.4 324.6L217.6 319.2C224.35 326.4 226.05 335.7 227.75 345L228.9 353.95L228.6 354.25L167.35 378.75L167.15 378.5L167.1 364.75L169.4 360.45C169.4 359.25 169.45 358.15 169.6 357.05V267.45C177.05 257.55 187 247.5 197.65 241.95L197.75 240.35C190.9 235.5 185 231 181.8 223.85C180.65 222.2 179.8 220.4 179 218.6C182.65 215.2 184.05 210.85 185.4 206.6C175.2 221.65 157.85 224.3 140.45 224.6C133.75 223.7 127.6 217.65 125.05 211.55C128.3 215.2 132.05 217.95 136.3 219.55C143.65 216.65 150.7 212.65 156.9 207.15C157.5 203.6 156.05 200.4 153.1 198.4C150.7 196.8 147.95 196.1 145.15 195.5C137.5 198.35 130.05 201.55 123 205.85C122.9 205.75 122.9 205.45 122.8 205.2L144.95 193.5C153.4 189.7 162.2 186.3 170.45 181.8C171.4 181.45 172.75 181.3 173.8 181.6V181.5Z" fill="white"/>
<path fill-rule="evenodd" clip-rule="evenodd" d="M141.25 193C136.5 192.4 130.8 191.75 125.55 192.5C122.5 196.2 120.85 200.4 120.9 205.4H121.25C121.75 207.35 122.5 209.3 123.1 211.1C112.75 212.9 102.4 214.8 91.5 215.15C91.8 217.25 92.4 219.3 93.5 221.15L92.3 221.7L87.05 215.6C89.05 209.05 92.05 202.75 95.8 196.9C105.55 192.75 115.85 189.95 126.75 188.6L141.2 193.05L141.25 193ZM119 207.6C115.25 208.35 111.1 208.8 107.1 208.5L97.65 211.25C97.6 210.75 97.35 210.4 97.3 209.95C100.45 208.9 104 208 107.35 207C111.25 207.6 115.15 206.9 118.75 206.15L119 207.65V207.6Z" fill="white"/>
<path fill-rule="evenodd" clip-rule="evenodd" d="M139.25 194.4L122.65 202.85C122.95 199.65 124.35 196.85 126.2 194.25C127.25 193.75 128.6 193.85 129.75 193.75C133 193.65 136.1 194.05 139.2 194.4H139.25Z" fill="white"/>
<path fill-rule="evenodd" clip-rule="evenodd" d="M155.05 202.9C155.45 203.9 155.55 205.1 155.45 206.3C149.55 211.35 143.15 215.05 136.3 217.85C131.45 215.9 126.8 211.8 123.75 207.25C130.5 202.95 137.85 199.8 145.25 197.1C149 197.85 153.15 199.05 155 202.9H155.05Z" fill="white"/>
<path fill-rule="evenodd" clip-rule="evenodd" d="M132.15 222.75C131.15 226.65 131.1 231.2 131.4 235.45C137.9 241.1 146.6 241.55 155.4 241.1C155 242.05 153.85 243.3 152.85 244.05C150.05 244.65 147.15 245.1 144.1 244.8L110.65 241.55C102.75 245.7 94.25 248.45 84.9 249.1C85.85 250.9 87.45 252.5 88.6 254.2C88.1 254.5 87.55 254.55 87.1 254.85L87.3 255.2L82.45 249.5C81.3 241.4 82.35 233.15 85.4 226.3C97.65 220.2 111.35 217.45 125.1 214.9C126.9 217.8 129.3 220.65 132.15 222.7V222.75ZM127.15 228.15C126.55 231.5 126.8 235.3 127.55 238.35C121.75 238.45 116.45 237.2 110.65 237.1C104.25 238.7 98.15 240.95 92.15 243.5L91.55 242.25C97.65 239.6 104.2 237 111.05 235.65C116.05 235.7 120.6 236.7 125.55 236.9C125.25 234.1 125.2 230.8 125.6 227.85L127.1 228.1L127.15 228.15Z" fill="white"/>
<path fill-rule="evenodd" clip-rule="evenodd" d="M155.85 226.55C157.1 230.45 157.15 235.45 155.95 239.5C147.65 240 139.15 239.75 132.9 234.65C132.65 230.95 132.8 227.1 133.55 223.7C139.8 227.4 148.25 227.7 155.85 226.55Z" fill="white"/>
<path fill-rule="evenodd" clip-rule="evenodd" d="M168.05 356.85H160.45V226.35C163 226.05 165.55 225.7 168.05 225.2V356.85Z" fill="white"/>
<path fill-rule="evenodd" clip-rule="evenodd" d="M194.25 241.85C185.15 247.3 176.4 256 169.65 264.65L169.6 226.1C174.9 234.9 183.9 241.75 194.25 241.85Z" fill="white"/>
<path fill-rule="evenodd" clip-rule="evenodd" d="M158.9 356.85H139.95V299.6C145.3 298.05 150.8 296.4 154.5 291.6C156.05 289 155.65 285.35 155.45 282.2C155.2 280.35 154.7 278.65 154.25 276.85C152.8 275.3 150.85 274.7 149.15 273.75C152.2 272.15 155.9 269.4 156.8 265.85C158.9 261.25 159.3 254.7 156.25 250.4C154.6 248.7 152.25 248.45 150.2 247.75C152.95 246.5 155.8 244 157.25 241.2C158.6 236.7 158.8 231 157.5 226.45C158 226.5 158.35 226.35 158.8 226.4L158.85 356.85H158.9Z" fill="white"/>
<path fill-rule="evenodd" clip-rule="evenodd" d="M147.1 248.7C149.05 248.95 151.15 249.6 152.8 250.25C146.45 249.9 139.55 248.75 133.3 250.15C130.9 250.75 131.2 253.5 130.65 255.3C130.45 258.45 129.7 262.45 132.25 264.8L134.15 266.45L154.2 267.6C154.15 267.95 153.9 268.45 153.5 268.55L128.25 272.3C122.25 273 115.4 273.3 109.3 272.5C101.65 278.4 92.55 280.9 83.2 282.9C84.2 284.75 85.8 286.65 87.85 287.3C87.25 287.8 86.5 288.15 85.75 288.5L80.3 282.45C79 276.05 78.7 268.05 81.85 262.4L88.15 256.15C97.65 252.4 106.8 247.7 117.55 246.8C127.6 247.05 137.45 247.65 147.15 248.7H147.1ZM126.3 255.7C125.75 259.4 125.9 263.45 126.65 267L108.25 266.7C103.6 268.3 99.1 270.25 94.75 272.6L94.1 271.35C98.55 268.8 103.35 266.75 108.35 265.15L124.8 265.55C124.55 262.4 124.25 258.65 124.85 255.45L126.3 255.7Z" fill="white"/>
<path fill-rule="evenodd" clip-rule="evenodd" d="M155.4 251.9C157.9 256 157 261.95 155.05 266.05C148.3 265.75 141.45 265.35 134.65 264.9C130.9 262.7 131.85 257.75 132.4 254.25C132.9 253.3 132.45 251.6 134.05 251.5C141.05 250.35 148.3 251.55 155.4 251.85V251.9Z" fill="white"/>
<path fill-rule="evenodd" clip-rule="evenodd" d="M151.75 276.85C145 277.05 138.4 277.85 131.7 278.45C129.85 282.35 130.4 287.6 131.9 291.5C139.35 291.85 146.6 291.2 153.45 289.95C141.35 297.6 125.95 298.15 110.9 299.05C107.45 300.05 103.9 300.75 100.75 302.6C99.45 303.65 97.7 303.85 96.3 304.7C95.65 308.85 97.35 312.35 100.1 315.35C100.4 314.85 101.45 314.6 101 314C98.9 311.7 97.6 309.05 97.75 305.8C98.95 305.35 100.15 304.95 101.4 304.5C110 303.2 118.85 302.4 127.65 301.65C127.65 303 127.7 304.35 127.7 305.7C125.7 306 123.35 305.9 121.2 306.05C117.3 308.65 113.3 311.1 109.35 313.75L121.7 322.9L124.5 331.95L127.6 334.15L127.65 343.85C111.45 336.1 94.3 322.2 85.35 305.7C84.65 300.15 85.55 294.75 86.7 289.75C93.05 286.25 99 281.6 105.85 278.95L109.3 278.2L146.45 274.95C146.8 275 147.35 274.7 147.8 274.9L151.7 276.9L151.75 276.85ZM126.4 281.6C124.8 285.1 125.9 289.7 126.7 293.3C120.95 292.9 115.3 293.35 110.2 294.75C109.9 294.5 109.9 293.85 109.7 293.45C114.35 291.95 119.55 291.75 124.8 291.75C124.1 288.5 123.65 284.25 125.1 281.1L126.4 281.65V281.6Z" fill="white"/>
<path fill-rule="evenodd" clip-rule="evenodd" d="M153.75 288.35C147.15 289.55 140.2 290.2 133.15 290.05C132.1 287 131.7 283.05 132.9 279.95C139.5 279.25 146.15 278.65 152.95 278.35C153.7 281.5 154.5 284.95 153.8 288.35H153.75Z" fill="white"/>
<path fill-rule="evenodd" clip-rule="evenodd" d="M171.1 316.6L171.05 295L180.5 310.8L171.1 316.6Z" fill="white"/>
<path fill-rule="evenodd" clip-rule="evenodd" d="M138.35 356.85L129.3 356.9V301.45C132.25 301.05 135.3 300.6 138.2 299.9L138.3 300.3V356.8L138.35 356.85Z" fill="white"/>
<path fill-rule="evenodd" clip-rule="evenodd" d="M171.05 344.9V332.2L190.1 320.95L188 335.05L171.05 344.9Z" fill="white"/>
<path fill-rule="evenodd" clip-rule="evenodd" d="M156.95 365.1H139.45L130.8 358.4H160.4L156.95 365.1Z" fill="white"/>
<path fill-rule="evenodd" clip-rule="evenodd" d="M163.55 364.45C163.3 369.7 163.3 375.05 163.05 380.3L149.9 385.45L136.7 380.15L136.95 365.15C138.2 366.7 140.1 366.7 142 366.6H159.7C160.95 365.9 162.2 365.05 163.5 364.4L163.55 364.45Z" fill="white"/>
<path fill-rule="evenodd" clip-rule="evenodd" d="M198.5 365.6L196.3 318.25L206.95 324.7L209.5 361.3L198.5 365.6Z" fill="white"/>
<path fill-rule="evenodd" clip-rule="evenodd" d="M107.6 205.65C111.45 198.9 115.2 197.1 120.35 196.2C119.45 199.1 118.2 202 118.95 204.9C114.35 206 111.9 205.75 107.6 205.65ZM108.35 234.55C113.85 234.55 119.3 234.95 124.8 235.95C123.6 232.05 124.3 228.1 124.7 224.2C124.1 223.4 123.55 222.6 122.95 221.85C119.2 221.65 115.4 221.8 111.65 222.8C108.95 226.7 108.35 230.65 108.4 234.55H108.35ZM107.4 264.4C112.8 263.7 118.2 263.45 123.6 264.4C122.95 260.8 123.1 257.2 123.8 253.6C119.85 253.05 115.95 252.65 112.35 253.55C111.25 254 109.95 254.25 109.55 255.45C108.2 258.45 107.5 261.4 107.45 264.4H107.4ZM109.65 292.25C109.35 290.25 109.5 288.25 109.95 286.25C110.25 285.05 111.6 284.15 112.75 283.9C116.45 283.05 120.15 282.25 123.9 281.4C123.1 284.55 122.75 287.65 123.25 290.8C119.1 290.15 113.8 290.9 109.65 292.25Z" fill="white"/>
<path fill-rule="evenodd" clip-rule="evenodd" d="M251.6 35.35L243.1 43.1C243.9 46.9 244.6 50.7 245.4 54.5L235.5 48.65L225.2 54.3L227.75 43.05C224.9 40.5 222.1 37.95 219.3 35.35L230.75 34.05L235.45 23.55L240.2 34L251.6 35.35Z" fill="white"/>
<path fill-rule="evenodd" clip-rule="evenodd" d="M200.5 239.05C191.8 235.7 185.6 226.45 179.7 218.9C182.4 216.8 183.15 215.35 184.3 212.1C191.5 217.7 200.1 223.75 206.7 230.1C211.75 234.95 212.9 242.3 208.1 246.6C183.2 268.95 184.75 276 202.05 308.2C182.4 300.55 167.55 289.45 178.85 266.55C183.6 256.95 193.3 250.75 200.5 242.8C201.5 241.7 203.6 240.2 200.5 239V239.05Z" fill="white"/>
<path fill-rule="evenodd" clip-rule="evenodd" d="M197.7 242.4C198.2 242.4 198.7 242.4 199.2 242.4C190.85 249.3 181.6 256.1 176.55 267.25C172.15 276.9 174.6 286 177.9 294C171.1 286.15 168.6 280.45 172.9 268.65C177.05 257.2 187.75 249.8 197.75 242.45L197.7 242.4Z" fill="white"/>
<path fill-rule="evenodd" clip-rule="evenodd" d="M170.95 347L187.35 338.15L188.8 369.45L168.6 377.65L168.45 363.9L170.95 359.4V347Z" fill="white"/>
<path fill-rule="evenodd" clip-rule="evenodd" d="M210.2 305.05C207.45 302.85 211.1 299.4 214.6 294.8C218.4 289.5 222.2 284.2 226 278.9L226.05 278.7C226.4 268.3 225.8 257.9 224.55 247.5C223.3 237.1 221.4 226.7 219.1 216.3L219.05 216.1L218.9 216L186.85 201.85L186.55 201.75L186.35 202C185.15 203.65 184.1 205.5 183.1 207.3C182.15 208.95 181.25 210.55 180.2 212.1C175.35 216.75 169.5 219.65 163.1 221.45C156.7 223.25 149.75 223.9 142.8 224.15C141.05 223.75 139.3 223.25 137.6 222.65C135.85 222.05 134.1 221.3 132.4 220.5C132.35 220.45 132.3 220.4 132.25 220.35C132.75 220.3 133.3 220.25 133.8 220.15C134.6 220.05 135.35 219.95 136.1 219.8C136.1 219.8 136.15 219.8 136.15 219.85L136.75 219.7C145.35 218.15 153.7 215 161.55 210.7C170.1 206 178.15 199.85 185.55 192.9L202.1 201.95C208.9 205.75 217 209.9 223.75 214.5C227.95 226.25 230.25 242.4 231.05 254.25C231.55 261.7 231.85 269.2 232.05 276.7C231.7 282.25 228.45 286.65 225.25 291.1C224.85 291.6 224.5 292.15 224.2 292.55C221.15 296.3 217.75 299.6 214.1 302.5C212.95 303.4 211.8 304.25 210.65 305.1H210.1L210.2 305.05Z" fill="white"/>
<path fill-rule="evenodd" clip-rule="evenodd" d="M127.35 342.1V334.65L124.35 332.45L121.4 323.2L108.85 313.8L121.15 305.85L127.3 305.35V302.3C119.4 302.8 111 303.55 101.6 304.85C100.45 305.3 99.35 305.75 98.2 306.2C98.05 309.25 99.35 311.7 101.05 314L127.25 342.15L127.35 342.1Z" fill="white"/>
</svg>
